<svg width="292" height="205" viewBox="0 0 292 205" fill="none" xmlns="http://www.w3.org/2000/svg">
<g clip-path="url(#clip0)">
<path d="M39 124.5L185 41.5L263.5 213.443L21.5 230.5L39 124.5Z" fill="#444444"/>
<path d="M114.823 128.653C114.913 128.043 114.868 127.421 114.691 126.831C114.513 126.24 114.208 125.696 113.797 125.236C113.386 124.775 112.879 124.411 112.311 124.167C111.743 123.924 111.128 123.807 110.511 123.826L83.4283 96.5275L78.0782 103.984L106.382 128.473C106.482 129.505 106.959 130.465 107.722 131.171C108.485 131.876 109.481 132.278 110.522 132.301C111.563 132.323 112.575 131.964 113.368 131.291C114.161 130.619 114.678 129.68 114.823 128.653Z" fill="#FFB8B8"/>
<path d="M101.994 112.89L95.0821 119.774C94.751 120.101 94.3039 120.286 93.8374 120.288C93.3708 120.29 92.9222 120.109 92.5885 119.784L73.7001 101.271C73.047 100.63 72.5277 99.8675 72.1723 99.0261C71.8168 98.1846 71.6322 97.2812 71.6292 96.3682C71.6261 95.4551 71.8047 94.5505 72.1545 93.7067C72.5043 92.8629 73.0185 92.0966 73.6672 91.4521C74.316 90.8077 75.0864 90.2978 75.9341 89.9521C76.7817 89.6063 77.6897 89.4315 78.6055 89.4378C79.5214 89.4441 80.4269 89.6313 81.2697 89.9886C82.1125 90.346 82.8758 90.8663 83.5156 91.5196L102.01 110.407C102.334 110.74 102.514 111.187 102.511 111.652C102.509 112.116 102.323 112.561 101.994 112.89Z" fill="#8AB4E5"/>
<path d="M77.7519 79.1017C83.0911 79.1017 87.4194 74.7867 87.4194 69.4638C87.4194 64.141 83.0911 59.8259 77.7519 59.8259C72.4127 59.8259 68.0844 64.141 68.0844 69.4638C68.0844 74.7867 72.4127 79.1017 77.7519 79.1017Z" fill="#FFB8B8"/>
<path d="M45.0856 184.959L47.5334 189.104L64.739 181.665L61.1261 175.546L45.0856 184.959Z" fill="#FFB8B8"/>
<path d="M45.8191 183.104L50.6398 191.269L50.64 191.27C51.0434 191.953 51.3079 192.709 51.4184 193.494C51.5288 194.279 51.483 195.078 51.2836 195.846C51.0842 196.613 50.7351 197.334 50.2562 197.967C49.7773 198.6 49.1781 199.133 48.4927 199.535L48.323 199.635L40.4302 186.267L45.8191 183.104Z" fill="#777777"/>
<path d="M73.4482 199.894H78.2739L80.5694 181.338L73.4474 181.339L73.4482 199.894Z" fill="#FFB8B8"/>
<path d="M72.2173 198.324L81.7206 198.323H81.721C82.5163 198.323 83.3039 198.48 84.0386 198.783C84.7734 199.086 85.4411 199.531 86.0035 200.092C86.5658 200.652 87.012 201.318 87.3163 202.051C87.6207 202.783 87.7773 203.568 87.7773 204.361V204.557L72.2176 204.558L72.2173 198.324Z" fill="#777777"/>
<path d="M54.0476 188.652C53.7699 188.652 53.496 188.587 53.2482 188.462C53.0004 188.337 52.7855 188.156 52.6211 187.933L47.9672 181.631C47.8252 181.439 47.7238 181.22 47.669 180.988C47.6143 180.756 47.6075 180.514 47.6488 180.279C47.6902 180.044 47.779 179.82 47.9098 179.62C48.0405 179.42 48.2106 179.249 48.4098 179.116L69.1193 165.326L56.6235 132.57L83.3455 134.769L84.2455 162.917C84.33 165.481 83.7137 168.019 82.4625 170.26C81.2114 172.501 79.3725 174.361 77.1427 175.641L54.9325 188.415C54.6636 188.57 54.3584 188.652 54.0476 188.652Z" fill="#777777"/>
<path d="M73.5938 196.127C73.1355 196.127 72.6954 195.949 72.3659 195.631C72.0365 195.314 71.8433 194.881 71.827 194.424L70.8477 167.002L82.9742 166.365L82.0086 193.985C81.9944 194.422 81.8172 194.839 81.5116 195.153C81.206 195.467 80.7938 195.657 80.3556 195.685L73.7142 196.124C73.6739 196.126 73.6338 196.127 73.5938 196.127Z" fill="#777777"/>
<path d="M86.438 140.214C83.3528 140.214 72.5764 136.754 68.8352 135.521C68.2755 135.968 65.2009 138.26 61.612 137.841C59.3975 137.582 57.448 136.332 55.8176 134.126C52.2173 129.255 56.6642 108.364 61.0287 91.6971C61.9037 88.3281 64.0547 85.4285 67.0297 83.6078C70.0046 81.7872 73.5718 81.1872 76.9812 81.9341C79.4524 82.478 81.7224 83.698 83.5363 85.4572C85.3503 87.2164 86.6362 89.445 87.2496 91.8926C88.0714 95.2272 87.3645 99.1498 86.8484 102.014C86.6057 103.361 86.414 104.425 86.4795 104.947C86.7328 106.968 88.1401 138.652 87.2352 140.005C87.1389 140.149 86.8602 140.214 86.438 140.214Z" fill="#8AB4E5"/>
<path d="M75.1511 140.27C75.647 139.902 76.0559 139.43 76.349 138.888C76.6421 138.345 76.8124 137.745 76.8477 137.13C76.883 136.515 76.7826 135.899 76.5535 135.327C76.3244 134.754 75.9723 134.239 75.5218 133.817L75.7128 95.4225L66.6421 96.9283L69.3066 134.195C68.6456 134.997 68.3024 136.012 68.3422 137.049C68.3819 138.086 68.8018 139.072 69.5222 139.821C70.2427 140.57 71.2136 141.029 72.251 141.112C73.2885 141.195 74.3203 140.895 75.1511 140.27Z" fill="#FFB8B8"/>
<path d="M77.2491 120.079H67.4789C67.0124 120.078 66.5651 119.894 66.2337 119.566C65.9022 119.239 65.7133 118.795 65.7077 118.33L65.4678 91.924C65.4595 91.0109 65.6328 90.1053 65.9778 89.2594C66.3228 88.4135 66.8326 87.6443 67.4777 86.9961C68.1228 86.3479 68.8904 85.8336 69.7361 85.483C70.5818 85.1324 71.4888 84.9525 72.4048 84.9536C73.3207 84.9547 74.2273 85.1369 75.0721 85.4895C75.917 85.8421 76.6833 86.3583 77.3268 87.008C77.9703 87.6578 78.4782 88.4283 78.8211 89.275C79.1641 90.1217 79.3352 91.0278 79.3246 91.9408L79.0203 118.334C79.0133 118.798 78.8239 119.241 78.4926 119.568C78.1614 119.894 77.7148 120.078 77.2491 120.079Z" fill="#8AB4E5"/>
<path d="M75.2903 79.0616C70.864 79.0697 66.6882 75.5817 65.9212 71.2358C65.6465 69.5284 65.7704 67.781 66.283 66.1291C66.8396 64.2486 67.7941 62.5089 69.0822 61.0273C70.3703 59.5458 71.9621 58.3567 73.7501 57.5403C75.5382 56.724 77.4811 56.2993 79.4478 56.2948C81.4144 56.2904 83.3592 56.7064 85.1509 57.5147C86.3351 58.0489 87.5014 58.8161 88.0436 59.9937C88.5857 61.1713 88.2464 62.8171 87.0604 63.347C86.2853 63.6933 85.3126 63.5232 84.625 64.0203C83.6373 64.7342 83.8916 66.2536 84.3326 67.3876C84.7736 68.5216 85.2725 69.8938 84.5331 70.8613C83.8442 71.7628 82.4672 71.7348 81.3825 71.3955C80.2979 71.0562 79.2273 70.488 78.0964 70.6036C76.447 70.7721 75.2617 72.4077 75.0423 74.0461C74.8229 75.6846 75.3394 77.3223 75.8493 78.8952L75.2903 79.0616Z" fill="#555555"/>
<path d="M196.263 88.8979C196.263 62.5418 217.694 0 244.131 0C270.568 0 292 62.5418 292 88.8979C292 101.555 286.957 113.693 277.98 122.642C269.002 131.592 256.827 136.62 244.131 136.62C231.436 136.62 219.26 131.592 210.283 122.642C201.306 113.693 196.263 101.555 196.263 88.8979Z" fill="#8AB4E5"/>
<path d="M244.131 205C244.027 205 243.927 204.959 243.853 204.885C243.779 204.812 243.738 204.712 243.738 204.608V40.078C243.738 39.9739 243.779 39.8741 243.853 39.8005C243.927 39.7269 244.027 39.6855 244.131 39.6855C244.236 39.6855 244.336 39.7269 244.41 39.8005C244.483 39.8741 244.525 39.9739 244.525 40.078V204.608C244.525 204.712 244.483 204.812 244.41 204.885C244.336 204.959 244.236 205 244.131 205Z" fill="#444444"/>
<path d="M244.131 71.8415C244.08 71.8416 244.028 71.8315 243.981 71.8117C243.933 71.792 243.889 71.7631 243.853 71.7266L224.907 52.8384C224.834 52.7646 224.793 52.6651 224.793 52.5614C224.793 52.4578 224.835 52.3585 224.908 52.2852C224.982 52.2119 225.082 52.1706 225.185 52.1703C225.289 52.17 225.389 52.2107 225.463 52.2835L244.41 71.1717C244.465 71.2266 244.502 71.2965 244.517 71.3726C244.532 71.4487 244.525 71.5276 244.495 71.5993C244.465 71.671 244.415 71.7323 244.35 71.7754C244.285 71.8185 244.209 71.8415 244.131 71.8415V71.8415Z" fill="#444444"/>
<path d="M244.131 104.541C244.053 104.541 243.977 104.518 243.913 104.475C243.848 104.431 243.797 104.37 243.768 104.299C243.738 104.227 243.73 104.148 243.745 104.072C243.76 103.996 243.798 103.926 243.853 103.871L275.582 72.2389C275.656 72.1661 275.756 72.1255 275.86 72.1259C275.964 72.1262 276.063 72.1675 276.137 72.2408C276.21 72.314 276.252 72.4133 276.252 72.5169C276.252 72.6205 276.212 72.72 276.139 72.7938L244.41 104.426C244.373 104.462 244.33 104.491 244.282 104.511C244.234 104.531 244.183 104.541 244.131 104.541Z" fill="#444444"/>
<path d="M111.659 128.43C117.939 127.014 125.054 131.912 125.274 138.486C125.336 140.335 124.793 142.277 123.365 143.535C122.187 144.574 120.434 145.098 118.91 144.59C115.979 143.613 115.822 139.541 117.395 137.366C119.524 134.421 123.742 133.918 127.089 134.268C131.181 134.697 135.07 136.485 138.334 138.937C144.868 143.845 149.028 151.368 152.395 158.636C155.842 166.091 158.349 173.944 159.858 182.015C160.048 183.029 160.221 184.045 160.38 185.064C160.424 185.213 160.526 185.339 160.663 185.414C160.8 185.489 160.961 185.507 161.112 185.465C161.26 185.418 161.384 185.316 161.459 185.18C161.534 185.044 161.553 184.885 161.513 184.735C160.135 175.928 157.589 167.343 153.943 159.204C150.417 151.328 145.972 143.158 138.901 137.901C135.376 135.281 131.213 133.457 126.808 133.067C123.1 132.739 118.708 133.521 116.402 136.737C114.582 139.273 114.767 143.489 117.582 145.256C119.13 146.227 121.097 146.114 122.704 145.359C123.556 144.939 124.307 144.339 124.905 143.601C125.502 142.863 125.931 142.005 126.162 141.085C127.162 137.433 125.644 133.484 123.041 130.874C120.599 128.418 117.28 127.026 113.811 127.004C112.975 127.013 112.143 127.112 111.329 127.299C110.588 127.466 110.919 128.596 111.659 128.43V128.43Z" fill="#888888"/>
<path d="M141.945 200.735L138.042 194.093L142.855 191.283L146.757 197.925V197.925C147.131 198.561 147.236 199.32 147.049 200.033C146.862 200.746 146.399 201.356 145.76 201.729C145.122 202.102 144.362 202.206 143.646 202.02C142.931 201.834 142.319 201.371 141.945 200.735Z" fill="#8AB4E5"/>
<path d="M129.041 186.928C130.937 186.928 132.473 185.396 132.473 183.507C132.473 181.617 130.937 180.085 129.041 180.085C127.146 180.085 125.609 181.617 125.609 183.507C125.609 185.396 127.146 186.928 129.041 186.928Z" fill="#8AB4E5"/>
<path d="M157.045 200.735L153.142 194.093L157.954 191.283L161.857 197.925C162.23 198.561 162.334 199.319 162.147 200.032C161.96 200.744 161.496 201.354 160.859 201.726C160.221 202.099 159.461 202.204 158.746 202.018C158.031 201.832 157.419 201.371 157.045 200.735Z" fill="#8AB4E5"/>
<path d="M129.693 190.399C129.696 188.472 130.465 186.624 131.832 185.261C133.199 183.898 135.053 183.131 136.986 183.129H160.072C160.889 183.13 161.673 183.454 162.251 184.03C162.828 184.606 163.153 185.387 163.154 186.202V188.821C163.152 191.167 162.216 193.416 160.552 195.075C158.888 196.734 156.631 197.667 154.278 197.67H136.986C135.053 197.668 133.199 196.901 131.832 195.538C130.465 194.175 129.696 192.327 129.693 190.399Z" fill="#777777"/>
<path d="M135.017 201.592V193.894H140.594V201.592C140.594 202.329 140.3 203.036 139.777 203.558C139.254 204.079 138.545 204.372 137.806 204.372C137.066 204.372 136.357 204.079 135.834 203.558C135.311 203.036 135.017 202.329 135.017 201.592Z" fill="#777777"/>
<path d="M151.2 201.592V193.894H156.776V201.592C156.777 201.957 156.705 202.319 156.565 202.657C156.425 202.994 156.22 203.301 155.961 203.56C155.702 203.818 155.394 204.023 155.056 204.163C154.717 204.303 154.354 204.375 153.988 204.375C153.622 204.375 153.259 204.303 152.92 204.163C152.582 204.023 152.274 203.818 152.015 203.56C151.756 203.301 151.551 202.994 151.411 202.657C151.271 202.319 151.199 201.957 151.2 201.592Z" fill="#777777"/>
<path d="M173.889 171.135C174.46 170.429 175.288 169.978 176.192 169.881C177.096 169.784 178.001 170.048 178.71 170.615C179.419 171.183 179.873 172.007 179.972 172.908C180.072 173.809 179.809 174.712 179.241 175.42L173.6 182.422L168.248 178.137L173.889 171.135Z" fill="#8AB4E5"/>
<path d="M160.301 184.929L164.82 179.319C165.919 177.958 167.514 177.088 169.256 176.898C170.998 176.708 172.745 177.215 174.112 178.308L175.524 179.438C177.152 180.745 178.193 182.641 178.42 184.712C178.647 186.782 178.04 188.858 176.734 190.484L173.011 195.105C172.599 195.615 172.002 195.941 171.35 196.012C170.697 196.083 170.043 195.893 169.531 195.484L160.681 188.397C160.169 187.987 159.842 187.392 159.771 186.741C159.7 186.091 159.89 185.439 160.301 184.929Z" fill="#777777"/>
<path d="M174.561 170.301C174.755 170.06 174.995 169.86 175.266 169.712C175.538 169.563 175.837 169.469 176.145 169.436C176.453 169.402 176.764 169.43 177.062 169.516C177.359 169.603 177.636 169.747 177.878 169.94C178.12 170.134 178.321 170.373 178.47 170.644C178.619 170.914 178.712 171.212 178.746 171.519C178.78 171.826 178.752 172.137 178.666 172.433C178.579 172.73 178.434 173.006 178.24 173.247L171.927 181.083L168.248 178.137L174.561 170.301Z" fill="#777777"/>
<path d="M165.518 183.399L175.217 191.166C175.924 191.735 176.376 192.56 176.473 193.461C176.571 194.361 176.306 195.264 175.737 195.97C175.168 196.676 174.341 197.129 173.438 197.228C172.535 197.328 171.629 197.066 170.919 196.501L161.22 188.734L165.518 183.399Z" fill="#777777"/>
<path d="M176.159 196.229C176.66 195.607 176.785 194.879 176.439 194.601C176.092 194.324 175.406 194.603 174.905 195.225C174.404 195.846 174.279 196.575 174.625 196.852C174.972 197.13 175.658 196.851 176.159 196.229Z" fill="#8AB4E5"/>
<path d="M272.38 204.927H0.393613C0.28922 204.927 0.189103 204.886 0.115286 204.812C0.0414695 204.739 0 204.639 0 204.535C0 204.431 0.0414695 204.331 0.115286 204.257C0.189103 204.184 0.28922 204.142 0.393613 204.142H272.38C272.484 204.142 272.584 204.184 272.658 204.257C272.732 204.331 272.774 204.431 272.774 204.535C272.774 204.639 272.732 204.739 272.658 204.812C272.584 204.886 272.484 204.927 272.38 204.927Z" fill="#888888"/>
</g>
<defs>
<clipPath id="clip0">
<rect width="292" height="205" fill="white"/>
</clipPath>
</defs>
</svg>
